<svg xmlns="http://www.w3.org/2000/svg" viewBox="0 0 200 200" width="512" height="512">
  <title>David Muñoz Valero - Favicon</title>
  
  <path d="M 92.0,163.5 L 57.8,119.5 L 56.5,118.3 L 47.9,118.3 L 37.7,109.1 L 61.9,109.3 L 92.0,148.1 L 122.1,109.3 L 133.8,109.1 L 125.0,121.5 L 139.7,120.1 L 149.9,112.4 L 152.8,108.1 L 155.3,99.8 L 155.3,93.4 L 153.2,85.8 L 147.6,78.1 L 139.5,73.3 L 139.4,55.5 L 92.4,90.0 L 44.7,55.5 L 44.5,103.8 L 35.4,104.3 L 35.0,36.5 L 92.0,78.1 L 149.2,36.7 L 149.2,67.2 L 158.2,75.4 L 164.3,89.1 L 165.0,99.5 L 161.8,111.7 L 153.3,123.0 L 142.9,129.4 L 135.8,131.2 L 117.5,131.2 L 92.0,163.5 Z" fill="#000000"/>
</svg>